<mxfile modified="2024-05-26T16:30:20.407Z" host="Electron" agent="Mozilla/5.0 (Windows NT 10.0; Win64; x64) AppleWebKit/537.36 (KHTML, like Gecko) draw.io/24.4.8 Chrome/124.0.6367.207 Electron/30.0.6 Safari/537.36" etag="modEndBGEQ3hGeEuuPig" version="24.4.8" type="device">
  <diagram id="b_TIV87pcosbFDb4-95I" name="Page-1">
    <mxGraphModel dx="5293" dy="3713" grid="1" gridSize="10" guides="1" tooltips="1" connect="1" arrows="1" fold="1" page="1" pageScale="1" pageWidth="3300" pageHeight="2339" math="0" shadow="0">
      <root>
        <mxCell id="0" />
        <mxCell id="1" parent="0" />
        <mxCell id="flblZkYbyNQ9tiGkdh4v-29" value="" style="group;fontSize=14;" parent="1" vertex="1" connectable="0">
          <mxGeometry x="2560" y="2080" width="700" height="220" as="geometry" />
        </mxCell>
        <mxCell id="U5MXIK-24vMOK5HsXXuc-69" style="vsdxID=8;edgeStyle=none;startArrow=none;endArrow=none;startSize=5;endSize=5;strokeColor=#000000;spacingTop=0;spacingBottom=0;spacingLeft=0;spacingRight=0;verticalAlign=middle;html=1;labelBackgroundColor=#ffffff;rounded=0;fontSize=14;" parent="flblZkYbyNQ9tiGkdh4v-29" edge="1">
          <mxGeometry relative="1" as="geometry">
            <mxPoint as="offset" />
            <Array as="points" />
            <mxPoint as="sourcePoint" />
            <mxPoint x="700" as="targetPoint" />
          </mxGeometry>
        </mxCell>
        <mxCell id="U5MXIK-24vMOK5HsXXuc-68" style="vsdxID=6;edgeStyle=none;startArrow=none;endArrow=none;startSize=5;endSize=5;strokeColor=#000000;spacingTop=0;spacingBottom=0;spacingLeft=0;spacingRight=0;verticalAlign=middle;html=1;labelBackgroundColor=#ffffff;rounded=0;fontSize=14;" parent="flblZkYbyNQ9tiGkdh4v-29" edge="1">
          <mxGeometry relative="1" as="geometry">
            <mxPoint x="10" as="offset" />
            <Array as="points" />
            <mxPoint y="220" as="sourcePoint" />
            <mxPoint as="targetPoint" />
          </mxGeometry>
        </mxCell>
        <mxCell id="U5MXIK-24vMOK5HsXXuc-2" value="&lt;p style=&quot;margin: 0px; text-indent: 0px; direction: ltr; font-size: 14px;&quot;&gt;&lt;font style=&quot;font-size: 14px; font-family: &amp;quot;times new roman&amp;quot;; color: rgb(0, 0, 0); direction: ltr; letter-spacing: 0px; line-height: 140%; opacity: 1;&quot;&gt;&lt;i style=&quot;font-size: 14px;&quot;&gt;Разраб.&lt;/i&gt;&lt;/font&gt;&lt;font style=&quot;font-size: 14px; font-family: &amp;quot;times new roman&amp;quot;; color: rgb(0, 0, 0); direction: ltr; letter-spacing: 0px; line-height: 140%; opacity: 1;&quot;&gt;&lt;br style=&quot;font-size: 14px;&quot;&gt;&lt;/font&gt;&lt;/p&gt;" style="verticalAlign=middle;align=center;vsdxID=41;fillColor=none;gradientColor=none;shape=stencil(nZBLDoAgDERP0z3SIyjew0SURgSD+Lu9kMZoXLhwN9O+tukAlrNpJg1SzDH4QW/URgNYgZTkjA4UkwJUgGXng+6DX1zLfmoymdXo17xh5zmRJ6Q42BWCfc2oJfdAr+Yv+AP9Cb7OJ3H/2JG1HNGz/84klThPVCc=);strokeColor=none;labelBackgroundColor=none;rounded=0;html=1;whiteSpace=wrap;fontSize=14;" parent="flblZkYbyNQ9tiGkdh4v-29" vertex="1">
          <mxGeometry y="100" width="70" height="20" as="geometry" />
        </mxCell>
        <mxCell id="U5MXIK-24vMOK5HsXXuc-4" value="&lt;p style=&quot;margin: 0px; text-indent: 0px; direction: ltr; font-size: 14px;&quot;&gt;&lt;font style=&quot;font-size: 14px; font-family: &amp;quot;times new roman&amp;quot;; color: rgb(0, 0, 0); direction: ltr; letter-spacing: 0px; line-height: 140%; opacity: 1;&quot;&gt;&lt;i style=&quot;font-size: 14px;&quot;&gt;Подп.&lt;/i&gt;&lt;/font&gt;&lt;font style=&quot;font-size: 14px; font-family: &amp;quot;times new roman&amp;quot;; color: rgb(0, 0, 0); direction: ltr; letter-spacing: 0px; line-height: 140%; opacity: 1;&quot;&gt;&lt;br style=&quot;font-size: 14px;&quot;&gt;&lt;/font&gt;&lt;/p&gt;" style="verticalAlign=middle;align=center;vsdxID=45;fillColor=none;gradientColor=none;shape=stencil(nZBLDoAgDERP0z3SIyjew0SURgSD+Lu9kMZoXLhwN9O+tukAlrNpJg1SzDH4QW/URgNYgZTkjA4UkwJUgGXng+6DX1zLfmoymdXo17xh5zmRJ6Q42BWCfc2oJfdAr+Yv+AP9Cb7OJ3H/2JG1HNGz/84klThPVCc=);strokeColor=none;labelBackgroundColor=none;rounded=0;html=1;whiteSpace=wrap;fontSize=14;" parent="flblZkYbyNQ9tiGkdh4v-29" vertex="1">
          <mxGeometry x="160" y="80" width="60" height="20" as="geometry" />
        </mxCell>
        <mxCell id="U5MXIK-24vMOK5HsXXuc-5" value="&lt;p style=&quot;margin: 0px; text-indent: 0px; direction: ltr; font-size: 14px;&quot;&gt;&lt;font style=&quot;font-size: 14px; font-family: &amp;quot;times new roman&amp;quot;; color: rgb(0, 0, 0); direction: ltr; letter-spacing: 0px; line-height: 140%; opacity: 1;&quot;&gt;&lt;i style=&quot;font-size: 14px;&quot;&gt;Лист&lt;/i&gt;&lt;/font&gt;&lt;font style=&quot;font-size: 14px; font-family: &amp;quot;times new roman&amp;quot;; color: rgb(0, 0, 0); direction: ltr; letter-spacing: 0px; line-height: 140%; opacity: 1;&quot;&gt;&lt;br style=&quot;font-size: 14px;&quot;&gt;&lt;/font&gt;&lt;/p&gt;" style="verticalAlign=middle;align=center;vsdxID=46;fillColor=none;gradientColor=none;shape=stencil(nZBLDoAgDERP0z3SIyjew0SURgSD+Lu9kMZoXLhwN9O+tukAlrNpJg1SzDH4QW/URgNYgZTkjA4UkwJUgGXng+6DX1zLfmoymdXo17xh5zmRJ6Q42BWCfc2oJfdAr+Yv+AP9Cb7OJ3H/2JG1HNGz/84klThPVCc=);strokeColor=none;labelBackgroundColor=none;rounded=0;html=1;whiteSpace=wrap;fontSize=14;" parent="flblZkYbyNQ9tiGkdh4v-29" vertex="1">
          <mxGeometry x="500" y="60" width="60" height="20" as="geometry" />
        </mxCell>
        <mxCell id="U5MXIK-24vMOK5HsXXuc-7" style="vsdxID=48;edgeStyle=none;startArrow=none;endArrow=none;startSize=5;endSize=5;strokeColor=#000000;spacingTop=0;spacingBottom=0;spacingLeft=0;spacingRight=0;verticalAlign=middle;html=1;labelBackgroundColor=#ffffff;rounded=0;fontSize=14;" parent="flblZkYbyNQ9tiGkdh4v-29" edge="1">
          <mxGeometry relative="1" as="geometry">
            <mxPoint x="10" as="offset" />
            <Array as="points">
              <mxPoint x="580" y="150" />
            </Array>
            <mxPoint x="580" y="160" as="sourcePoint" />
            <mxPoint x="580" y="140" as="targetPoint" />
          </mxGeometry>
        </mxCell>
        <mxCell id="U5MXIK-24vMOK5HsXXuc-9" value="&lt;p style=&quot;margin: 0px ; text-indent: 0px ; direction: ltr ; font-size: 14px&quot;&gt;&lt;font style=&quot;font-size: 14px ; font-family: &amp;quot;times new roman&amp;quot; ; color: rgb(0 , 0 , 0) ; direction: ltr ; letter-spacing: 0px ; line-height: 140% ; opacity: 1&quot;&gt;&lt;i style=&quot;font-size: 14px&quot;&gt;ГУИР. 251001 103 СА&lt;/i&gt;&lt;/font&gt;&lt;font style=&quot;font-size: 14px ; font-family: &amp;quot;times new roman&amp;quot; ; color: rgb(0 , 0 , 0) ; direction: ltr ; letter-spacing: 0px ; line-height: 140% ; opacity: 1&quot;&gt;&lt;br style=&quot;font-size: 14px&quot;&gt;&lt;/font&gt;&lt;/p&gt;" style="verticalAlign=middle;align=center;vsdxID=50;fillColor=none;gradientColor=none;shape=stencil(nZBLDoAgDERP0z3SIyjew0SURgSD+Lu9kMZoXLhwN9O+tukAlrNpJg1SzDH4QW/URgNYgZTkjA4UkwJUgGXng+6DX1zLfmoymdXo17xh5zmRJ6Q42BWCfc2oJfdAr+Yv+AP9Cb7OJ3H/2JG1HNGz/84klThPVCc=);strokeColor=none;labelBackgroundColor=none;rounded=0;html=1;whiteSpace=wrap;fontSize=14;" parent="flblZkYbyNQ9tiGkdh4v-29" vertex="1">
          <mxGeometry x="260" width="440" height="60" as="geometry" />
        </mxCell>
        <mxCell id="U5MXIK-24vMOK5HsXXuc-14" value="&lt;p style=&quot;margin: 0px ; text-indent: 0px ; direction: ltr&quot;&gt;&lt;font face=&quot;Times New Roman&quot;&gt;&lt;i&gt;&lt;span style=&quot;background-color: initial;&quot;&gt;Схема алгоритма подключения к&amp;nbsp;&lt;/span&gt;&lt;br&gt;&lt;/i&gt;&lt;/font&gt;&lt;/p&gt;&lt;p style=&quot;margin: 0px; direction: ltr;&quot;&gt;&lt;font face=&quot;tBIM56NVSKvf0tMKFWMh&quot;&gt;&lt;i&gt;оригинальному серверу игры&amp;nbsp;&lt;/i&gt;&lt;/font&gt;&lt;/p&gt;&lt;p style=&quot;margin: 0px; direction: ltr;&quot;&gt;&lt;i&gt;&lt;font face=&quot;tBIM56NVSKvf0tMKFWMh&quot; style=&quot;direction: ltr; line-height: 120%; opacity: 1;&quot;&gt;&lt;/font&gt;&lt;/i&gt;&lt;/p&gt;&lt;p style=&quot;margin: 0px; direction: ltr;&quot;&gt;&lt;font face=&quot;tBIM56NVSKvf0tMKFWMh&quot;&gt;&lt;i&gt;«Slither.io»&lt;/i&gt;&lt;/font&gt;&lt;/p&gt;" style="verticalAlign=middle;align=center;vsdxID=51;fillColor=none;gradientColor=none;shape=stencil(nZBLDoAgDERP0z3SIyjew0SURgSD+Lu9kMZoXLhwN9O+tukAlrNpJg1SzDH4QW/URgNYgZTkjA4UkwJUgGXng+6DX1zLfmoymdXo17xh5zmRJ6Q42BWCfc2oJfdAr+Yv+AP9Cb7OJ3H/2JG1HNGz/84klThPVCc=);strokeColor=none;labelBackgroundColor=none;rounded=0;html=1;whiteSpace=wrap;fontSize=14;" parent="flblZkYbyNQ9tiGkdh4v-29" vertex="1">
          <mxGeometry x="260" y="60" width="240" height="100" as="geometry" />
        </mxCell>
        <mxCell id="U5MXIK-24vMOK5HsXXuc-66" style="vsdxID=1;edgeStyle=none;startArrow=none;endArrow=none;startSize=5;endSize=5;strokeColor=#000000;spacingTop=0;spacingBottom=0;spacingLeft=0;spacingRight=0;verticalAlign=middle;html=1;labelBackgroundColor=#ffffff;rounded=0;fontSize=14;" parent="flblZkYbyNQ9tiGkdh4v-29" edge="1">
          <mxGeometry relative="1" as="geometry">
            <mxPoint x="10" as="offset" />
            <Array as="points" />
            <mxPoint x="500" y="220" as="sourcePoint" />
            <mxPoint x="500" y="60" as="targetPoint" />
          </mxGeometry>
        </mxCell>
        <mxCell id="U5MXIK-24vMOK5HsXXuc-67" style="vsdxID=4;edgeStyle=none;startArrow=none;endArrow=none;startSize=5;endSize=5;strokeColor=#000000;spacingTop=0;spacingBottom=0;spacingLeft=0;spacingRight=0;verticalAlign=middle;html=1;labelBackgroundColor=#ffffff;rounded=0;fontSize=14;" parent="flblZkYbyNQ9tiGkdh4v-29" edge="1">
          <mxGeometry relative="1" as="geometry">
            <mxPoint x="10" as="offset" />
            <Array as="points" />
            <mxPoint x="260" y="220" as="sourcePoint" />
            <mxPoint x="260" as="targetPoint" />
          </mxGeometry>
        </mxCell>
        <mxCell id="U5MXIK-24vMOK5HsXXuc-70" style="vsdxID=11;edgeStyle=none;startArrow=none;endArrow=none;startSize=5;endSize=5;strokeColor=#000000;spacingTop=0;spacingBottom=0;spacingLeft=0;spacingRight=0;verticalAlign=middle;html=1;labelBackgroundColor=#ffffff;rounded=0;fontSize=14;" parent="flblZkYbyNQ9tiGkdh4v-29" edge="1">
          <mxGeometry relative="1" as="geometry">
            <Array as="points" />
            <mxPoint x="700" y="60" as="sourcePoint" />
            <mxPoint y="60" as="targetPoint" />
          </mxGeometry>
        </mxCell>
        <mxCell id="U5MXIK-24vMOK5HsXXuc-71" style="vsdxID=12;edgeStyle=none;startArrow=none;endArrow=none;startSize=5;endSize=5;strokeColor=#000000;spacingTop=0;spacingBottom=0;spacingLeft=0;spacingRight=0;verticalAlign=middle;html=1;labelBackgroundColor=#ffffff;rounded=0;fontSize=14;" parent="flblZkYbyNQ9tiGkdh4v-29" edge="1">
          <mxGeometry relative="1" as="geometry">
            <Array as="points" />
            <mxPoint x="700" y="160" as="sourcePoint" />
            <mxPoint y="160" as="targetPoint" />
          </mxGeometry>
        </mxCell>
        <mxCell id="U5MXIK-24vMOK5HsXXuc-72" style="vsdxID=13;edgeStyle=none;startArrow=none;endArrow=none;startSize=5;endSize=5;strokeColor=#000000;spacingTop=0;spacingBottom=0;spacingLeft=0;spacingRight=0;verticalAlign=middle;html=1;labelBackgroundColor=#ffffff;rounded=0;fontSize=14;" parent="flblZkYbyNQ9tiGkdh4v-29" edge="1">
          <mxGeometry relative="1" as="geometry">
            <Array as="points" />
            <mxPoint x="260" y="200" as="sourcePoint" />
            <mxPoint y="200" as="targetPoint" />
          </mxGeometry>
        </mxCell>
        <mxCell id="U5MXIK-24vMOK5HsXXuc-73" style="vsdxID=22;edgeStyle=none;startArrow=none;endArrow=none;startSize=5;endSize=5;strokeColor=#000000;spacingTop=0;spacingBottom=0;spacingLeft=0;spacingRight=0;verticalAlign=middle;html=1;labelBackgroundColor=#ffffff;rounded=0;fontSize=14;" parent="flblZkYbyNQ9tiGkdh4v-29" edge="1">
          <mxGeometry relative="1" as="geometry">
            <Array as="points" />
            <mxPoint x="260" y="180" as="sourcePoint" />
            <mxPoint y="180" as="targetPoint" />
          </mxGeometry>
        </mxCell>
        <mxCell id="U5MXIK-24vMOK5HsXXuc-74" style="vsdxID=23;edgeStyle=none;startArrow=none;endArrow=none;startSize=5;endSize=5;strokeColor=#000000;spacingTop=0;spacingBottom=0;spacingLeft=0;spacingRight=0;verticalAlign=middle;html=1;labelBackgroundColor=#ffffff;rounded=0;fontSize=14;" parent="flblZkYbyNQ9tiGkdh4v-29" edge="1">
          <mxGeometry relative="1" as="geometry">
            <Array as="points" />
            <mxPoint x="260" y="140" as="sourcePoint" />
            <mxPoint y="140" as="targetPoint" />
          </mxGeometry>
        </mxCell>
        <mxCell id="U5MXIK-24vMOK5HsXXuc-75" style="vsdxID=24;edgeStyle=none;startArrow=none;endArrow=none;startSize=5;endSize=5;strokeColor=#000000;spacingTop=0;spacingBottom=0;spacingLeft=0;spacingRight=0;verticalAlign=middle;html=1;labelBackgroundColor=#ffffff;rounded=0;fontSize=14;" parent="flblZkYbyNQ9tiGkdh4v-29" edge="1">
          <mxGeometry relative="1" as="geometry">
            <Array as="points" />
            <mxPoint x="260" y="120" as="sourcePoint" />
            <mxPoint y="120" as="targetPoint" />
          </mxGeometry>
        </mxCell>
        <mxCell id="U5MXIK-24vMOK5HsXXuc-76" style="vsdxID=25;edgeStyle=none;startArrow=none;endArrow=none;startSize=5;endSize=5;strokeColor=#000000;spacingTop=0;spacingBottom=0;spacingLeft=0;spacingRight=0;verticalAlign=middle;html=1;labelBackgroundColor=#ffffff;rounded=0;fontSize=14;" parent="flblZkYbyNQ9tiGkdh4v-29" edge="1">
          <mxGeometry relative="1" as="geometry">
            <Array as="points" />
            <mxPoint x="260" y="100" as="sourcePoint" />
            <mxPoint y="100" as="targetPoint" />
          </mxGeometry>
        </mxCell>
        <mxCell id="U5MXIK-24vMOK5HsXXuc-77" style="vsdxID=26;edgeStyle=none;startArrow=none;endArrow=none;startSize=5;endSize=5;strokeColor=#000000;spacingTop=0;spacingBottom=0;spacingLeft=0;spacingRight=0;verticalAlign=middle;html=1;labelBackgroundColor=#ffffff;rounded=0;fontSize=14;" parent="flblZkYbyNQ9tiGkdh4v-29" edge="1">
          <mxGeometry relative="1" as="geometry">
            <Array as="points" />
            <mxPoint x="260" y="80" as="sourcePoint" />
            <mxPoint y="80" as="targetPoint" />
          </mxGeometry>
        </mxCell>
        <mxCell id="U5MXIK-24vMOK5HsXXuc-78" style="vsdxID=27;edgeStyle=none;startArrow=none;endArrow=none;startSize=5;endSize=5;strokeColor=#000000;spacingTop=0;spacingBottom=0;spacingLeft=0;spacingRight=0;verticalAlign=middle;html=1;labelBackgroundColor=#ffffff;rounded=0;fontSize=14;" parent="flblZkYbyNQ9tiGkdh4v-29" edge="1">
          <mxGeometry relative="1" as="geometry">
            <Array as="points" />
            <mxPoint x="260" y="40" as="sourcePoint" />
            <mxPoint y="40" as="targetPoint" />
          </mxGeometry>
        </mxCell>
        <mxCell id="U5MXIK-24vMOK5HsXXuc-79" style="vsdxID=28;edgeStyle=none;startArrow=none;endArrow=none;startSize=5;endSize=5;strokeColor=#000000;spacingTop=0;spacingBottom=0;spacingLeft=0;spacingRight=0;verticalAlign=middle;html=1;labelBackgroundColor=#ffffff;rounded=0;fontSize=14;" parent="flblZkYbyNQ9tiGkdh4v-29" edge="1">
          <mxGeometry relative="1" as="geometry">
            <Array as="points" />
            <mxPoint x="260" y="20" as="sourcePoint" />
            <mxPoint y="20" as="targetPoint" />
          </mxGeometry>
        </mxCell>
        <mxCell id="U5MXIK-24vMOK5HsXXuc-80" style="vsdxID=29;edgeStyle=none;startArrow=none;endArrow=none;startSize=5;endSize=5;strokeColor=#000000;spacingTop=0;spacingBottom=0;spacingLeft=0;spacingRight=0;verticalAlign=middle;html=1;labelBackgroundColor=#ffffff;rounded=0;fontSize=14;" parent="flblZkYbyNQ9tiGkdh4v-29" edge="1">
          <mxGeometry relative="1" as="geometry">
            <Array as="points" />
            <mxPoint x="700" y="140" as="sourcePoint" />
            <mxPoint x="500" y="140" as="targetPoint" />
          </mxGeometry>
        </mxCell>
        <mxCell id="U5MXIK-24vMOK5HsXXuc-81" style="vsdxID=30;edgeStyle=none;startArrow=none;endArrow=none;startSize=5;endSize=5;strokeColor=#000000;spacingTop=0;spacingBottom=0;spacingLeft=0;spacingRight=0;verticalAlign=middle;html=1;labelBackgroundColor=#ffffff;rounded=0;fontSize=14;" parent="flblZkYbyNQ9tiGkdh4v-29" edge="1">
          <mxGeometry relative="1" as="geometry">
            <Array as="points" />
            <mxPoint x="700" y="80" as="sourcePoint" />
            <mxPoint x="500" y="80" as="targetPoint" />
          </mxGeometry>
        </mxCell>
        <mxCell id="U5MXIK-24vMOK5HsXXuc-82" style="vsdxID=31;edgeStyle=none;startArrow=none;endArrow=none;startSize=5;endSize=5;strokeColor=#000000;spacingTop=0;spacingBottom=0;spacingLeft=0;spacingRight=0;verticalAlign=middle;html=1;labelBackgroundColor=#ffffff;rounded=0;fontSize=14;" parent="flblZkYbyNQ9tiGkdh4v-29" edge="1">
          <mxGeometry relative="1" as="geometry">
            <mxPoint x="10" as="offset" />
            <Array as="points" />
            <mxPoint x="220" y="220" as="sourcePoint" />
            <mxPoint x="220" as="targetPoint" />
          </mxGeometry>
        </mxCell>
        <mxCell id="U5MXIK-24vMOK5HsXXuc-83" style="vsdxID=33;edgeStyle=none;startArrow=none;endArrow=none;startSize=5;endSize=5;strokeColor=#000000;spacingTop=0;spacingBottom=0;spacingLeft=0;spacingRight=0;verticalAlign=middle;html=1;labelBackgroundColor=#ffffff;rounded=0;fontSize=14;" parent="flblZkYbyNQ9tiGkdh4v-29" edge="1">
          <mxGeometry relative="1" as="geometry">
            <mxPoint x="10" as="offset" />
            <Array as="points" />
            <mxPoint x="160" y="220" as="sourcePoint" />
            <mxPoint x="160" as="targetPoint" />
          </mxGeometry>
        </mxCell>
        <mxCell id="U5MXIK-24vMOK5HsXXuc-84" style="vsdxID=34;edgeStyle=none;startArrow=none;endArrow=none;startSize=5;endSize=5;strokeColor=#000000;spacingTop=0;spacingBottom=0;spacingLeft=0;spacingRight=0;verticalAlign=middle;html=1;labelBackgroundColor=#ffffff;rounded=0;fontSize=14;" parent="flblZkYbyNQ9tiGkdh4v-29" edge="1">
          <mxGeometry relative="1" as="geometry">
            <mxPoint x="10" as="offset" />
            <Array as="points" />
            <mxPoint x="70" y="220" as="sourcePoint" />
            <mxPoint x="70" as="targetPoint" />
          </mxGeometry>
        </mxCell>
        <mxCell id="U5MXIK-24vMOK5HsXXuc-85" style="vsdxID=35;edgeStyle=none;startArrow=none;endArrow=none;startSize=5;endSize=5;strokeColor=#000000;spacingTop=0;spacingBottom=0;spacingLeft=0;spacingRight=0;verticalAlign=middle;html=1;labelBackgroundColor=#ffffff;rounded=0;fontSize=14;" parent="flblZkYbyNQ9tiGkdh4v-29" edge="1">
          <mxGeometry relative="1" as="geometry">
            <mxPoint x="10" as="offset" />
            <Array as="points" />
            <mxPoint x="30" y="100" as="sourcePoint" />
            <mxPoint x="30" as="targetPoint" />
          </mxGeometry>
        </mxCell>
        <mxCell id="U5MXIK-24vMOK5HsXXuc-86" style="vsdxID=36;edgeStyle=none;startArrow=none;endArrow=none;startSize=5;endSize=5;strokeColor=#000000;spacingTop=0;spacingBottom=0;spacingLeft=0;spacingRight=0;verticalAlign=middle;html=1;labelBackgroundColor=#ffffff;rounded=0;fontSize=14;" parent="flblZkYbyNQ9tiGkdh4v-29" edge="1">
          <mxGeometry relative="1" as="geometry">
            <mxPoint x="10" as="offset" />
            <Array as="points" />
            <mxPoint x="560" y="140" as="sourcePoint" />
            <mxPoint x="560" y="60" as="targetPoint" />
          </mxGeometry>
        </mxCell>
        <mxCell id="U5MXIK-24vMOK5HsXXuc-87" style="vsdxID=38;edgeStyle=none;startArrow=none;endArrow=none;startSize=5;endSize=5;strokeColor=#000000;spacingTop=0;spacingBottom=0;spacingLeft=0;spacingRight=0;verticalAlign=middle;html=1;labelBackgroundColor=#ffffff;rounded=0;fontSize=14;" parent="flblZkYbyNQ9tiGkdh4v-29" edge="1">
          <mxGeometry relative="1" as="geometry">
            <mxPoint x="10" as="offset" />
            <Array as="points" />
            <mxPoint x="620" y="140" as="sourcePoint" />
            <mxPoint x="620" y="60" as="targetPoint" />
          </mxGeometry>
        </mxCell>
        <mxCell id="U5MXIK-24vMOK5HsXXuc-88" style="vsdxID=39;edgeStyle=none;startArrow=none;endArrow=none;startSize=5;endSize=5;strokeColor=#000000;spacingTop=0;spacingBottom=0;spacingLeft=0;spacingRight=0;verticalAlign=middle;html=1;labelBackgroundColor=#ffffff;rounded=0;fontSize=14;" parent="flblZkYbyNQ9tiGkdh4v-29" edge="1">
          <mxGeometry relative="1" as="geometry">
            <mxPoint x="10" as="offset" />
            <Array as="points" />
            <mxPoint x="520" y="140" as="sourcePoint" />
            <mxPoint x="520" y="80" as="targetPoint" />
          </mxGeometry>
        </mxCell>
        <mxCell id="U5MXIK-24vMOK5HsXXuc-89" style="vsdxID=40;edgeStyle=none;startArrow=none;endArrow=none;startSize=5;endSize=5;strokeColor=#000000;spacingTop=0;spacingBottom=0;spacingLeft=0;spacingRight=0;verticalAlign=middle;html=1;labelBackgroundColor=#ffffff;rounded=0;fontSize=14;" parent="flblZkYbyNQ9tiGkdh4v-29" edge="1">
          <mxGeometry relative="1" as="geometry">
            <mxPoint x="10" as="offset" />
            <Array as="points" />
            <mxPoint x="540" y="140" as="sourcePoint" />
            <mxPoint x="540" y="80" as="targetPoint" />
          </mxGeometry>
        </mxCell>
        <mxCell id="U5MXIK-24vMOK5HsXXuc-6" value="&lt;p style=&quot;margin: 0px; text-indent: 0px; direction: ltr; font-size: 14px;&quot;&gt;&lt;font style=&quot;font-size: 14px; font-family: &amp;quot;times new roman&amp;quot;; color: rgb(0, 0, 0); direction: ltr; letter-spacing: 0px; line-height: 140%; opacity: 1;&quot;&gt;&lt;i style=&quot;font-size: 14px;&quot;&gt;Лист&lt;/i&gt;&lt;/font&gt;&lt;font style=&quot;font-size: 14px; font-family: &amp;quot;times new roman&amp;quot;; color: rgb(0, 0, 0); direction: ltr; letter-spacing: 0px; line-height: 140%; opacity: 1;&quot;&gt;&lt;br style=&quot;font-size: 14px;&quot;&gt;&lt;/font&gt;&lt;/p&gt;" style="verticalAlign=middle;align=center;vsdxID=47;fillColor=none;gradientColor=none;shape=stencil(nZBLDoAgDERP0z3SIyjew0SURgSD+Lu9kMZoXLhwN9O+tukAlrNpJg1SzDH4QW/URgNYgZTkjA4UkwJUgGXng+6DX1zLfmoymdXo17xh5zmRJ6Q42BWCfc2oJfdAr+Yv+AP9Cb7OJ3H/2JG1HNGz/84klThPVCc=);strokeColor=none;labelBackgroundColor=none;rounded=0;html=1;whiteSpace=wrap;fontSize=14;" parent="flblZkYbyNQ9tiGkdh4v-29" vertex="1">
          <mxGeometry x="500" y="140" width="40" height="20" as="geometry" />
        </mxCell>
        <mxCell id="flblZkYbyNQ9tiGkdh4v-3" value="&lt;p style=&quot;margin: 0px; text-indent: 0px; direction: ltr; font-size: 14px;&quot;&gt;&lt;font style=&quot;font-size: 14px; font-family: &amp;quot;times new roman&amp;quot;; color: rgb(0, 0, 0); direction: ltr; letter-spacing: 0px; line-height: 140%; opacity: 1;&quot;&gt;&lt;i style=&quot;font-size: 14px;&quot;&gt;Листов&lt;/i&gt;&lt;/font&gt;&lt;font style=&quot;font-size: 14px; font-family: &amp;quot;times new roman&amp;quot;; color: rgb(0, 0, 0); direction: ltr; letter-spacing: 0px; line-height: 140%; opacity: 1;&quot;&gt;&lt;br style=&quot;font-size: 14px;&quot;&gt;&lt;/font&gt;&lt;/p&gt;" style="verticalAlign=middle;align=center;vsdxID=47;fillColor=none;gradientColor=none;shape=stencil(nZBLDoAgDERP0z3SIyjew0SURgSD+Lu9kMZoXLhwN9O+tukAlrNpJg1SzDH4QW/URgNYgZTkjA4UkwJUgGXng+6DX1zLfmoymdXo17xh5zmRJ6Q42BWCfc2oJfdAr+Yv+AP9Cb7OJ3H/2JG1HNGz/84klThPVCc=);strokeColor=none;labelBackgroundColor=none;rounded=0;html=1;whiteSpace=wrap;fontSize=14;" parent="flblZkYbyNQ9tiGkdh4v-29" vertex="1">
          <mxGeometry x="580" y="140" width="50" height="20" as="geometry" />
        </mxCell>
        <mxCell id="flblZkYbyNQ9tiGkdh4v-5" value="&lt;p style=&quot;margin: 0px; text-indent: 0px; direction: ltr; font-size: 14px;&quot;&gt;&lt;font style=&quot;font-size: 14px; font-family: &amp;quot;times new roman&amp;quot;; color: rgb(0, 0, 0); direction: ltr; letter-spacing: 0px; line-height: 140%; opacity: 1;&quot;&gt;&lt;i style=&quot;font-size: 14px;&quot;&gt;1&lt;/i&gt;&lt;/font&gt;&lt;font style=&quot;font-size: 14px; font-family: &amp;quot;times new roman&amp;quot;; color: rgb(0, 0, 0); direction: ltr; letter-spacing: 0px; line-height: 140%; opacity: 1;&quot;&gt;&lt;br style=&quot;font-size: 14px;&quot;&gt;&lt;/font&gt;&lt;/p&gt;" style="verticalAlign=middle;align=center;vsdxID=47;fillColor=none;gradientColor=none;shape=stencil(nZBLDoAgDERP0z3SIyjew0SURgSD+Lu9kMZoXLhwN9O+tukAlrNpJg1SzDH4QW/URgNYgZTkjA4UkwJUgGXng+6DX1zLfmoymdXo17xh5zmRJ6Q42BWCfc2oJfdAr+Yv+AP9Cb7OJ3H/2JG1HNGz/84klThPVCc=);strokeColor=none;labelBackgroundColor=none;rounded=0;html=1;whiteSpace=wrap;fontSize=14;" parent="flblZkYbyNQ9tiGkdh4v-29" vertex="1">
          <mxGeometry x="670" y="140" width="30" height="20" as="geometry" />
        </mxCell>
        <mxCell id="flblZkYbyNQ9tiGkdh4v-6" value="&lt;p style=&quot;margin: 0px; text-indent: 0px; direction: ltr; font-size: 14px;&quot;&gt;&lt;font style=&quot;font-size: 14px; font-family: &amp;quot;times new roman&amp;quot;; color: rgb(0, 0, 0); direction: ltr; letter-spacing: 0px; line-height: 140%; opacity: 1;&quot;&gt;&lt;i style=&quot;font-size: 14px;&quot;&gt;1&lt;/i&gt;&lt;/font&gt;&lt;font style=&quot;font-size: 14px; font-family: &amp;quot;times new roman&amp;quot;; color: rgb(0, 0, 0); direction: ltr; letter-spacing: 0px; line-height: 140%; opacity: 1;&quot;&gt;&lt;br style=&quot;font-size: 14px;&quot;&gt;&lt;/font&gt;&lt;/p&gt;" style="verticalAlign=middle;align=center;vsdxID=47;fillColor=none;gradientColor=none;shape=stencil(nZBLDoAgDERP0z3SIyjew0SURgSD+Lu9kMZoXLhwN9O+tukAlrNpJg1SzDH4QW/URgNYgZTkjA4UkwJUgGXng+6DX1zLfmoymdXo17xh5zmRJ6Q42BWCfc2oJfdAr+Yv+AP9Cb7OJ3H/2JG1HNGz/84klThPVCc=);strokeColor=none;labelBackgroundColor=none;rounded=0;html=1;whiteSpace=wrap;fontSize=14;" parent="flblZkYbyNQ9tiGkdh4v-29" vertex="1">
          <mxGeometry x="550" y="140" width="30" height="20" as="geometry" />
        </mxCell>
        <mxCell id="flblZkYbyNQ9tiGkdh4v-7" value="&lt;p style=&quot;margin: 0px; text-indent: 0px; direction: ltr; font-size: 14px;&quot;&gt;&lt;font style=&quot;font-size: 14px; font-family: &amp;quot;times new roman&amp;quot;; color: rgb(0, 0, 0); direction: ltr; letter-spacing: 0px; line-height: 140%; opacity: 1;&quot;&gt;&lt;i style=&quot;font-size: 14px;&quot;&gt;Масса&lt;/i&gt;&lt;/font&gt;&lt;font style=&quot;font-size: 14px; font-family: &amp;quot;times new roman&amp;quot;; color: rgb(0, 0, 0); direction: ltr; letter-spacing: 0px; line-height: 140%; opacity: 1;&quot;&gt;&lt;br style=&quot;font-size: 14px;&quot;&gt;&lt;/font&gt;&lt;/p&gt;" style="verticalAlign=middle;align=center;vsdxID=46;fillColor=none;gradientColor=none;shape=stencil(nZBLDoAgDERP0z3SIyjew0SURgSD+Lu9kMZoXLhwN9O+tukAlrNpJg1SzDH4QW/URgNYgZTkjA4UkwJUgGXng+6DX1zLfmoymdXo17xh5zmRJ6Q42BWCfc2oJfdAr+Yv+AP9Cb7OJ3H/2JG1HNGz/84klThPVCc=);strokeColor=none;labelBackgroundColor=none;rounded=0;html=1;whiteSpace=wrap;fontSize=14;" parent="flblZkYbyNQ9tiGkdh4v-29" vertex="1">
          <mxGeometry x="560" y="60" width="60" height="20" as="geometry" />
        </mxCell>
        <mxCell id="flblZkYbyNQ9tiGkdh4v-8" value="&lt;p style=&quot;margin: 0px; text-indent: 0px; direction: ltr; font-size: 14px;&quot;&gt;&lt;font style=&quot;font-size: 14px; font-family: &amp;quot;times new roman&amp;quot;; color: rgb(0, 0, 0); direction: ltr; letter-spacing: 0px; line-height: 140%; opacity: 1;&quot;&gt;&lt;i style=&quot;font-size: 14px;&quot;&gt;Масштаб&lt;/i&gt;&lt;/font&gt;&lt;font style=&quot;font-size: 14px; font-family: &amp;quot;times new roman&amp;quot;; color: rgb(0, 0, 0); direction: ltr; letter-spacing: 0px; line-height: 140%; opacity: 1;&quot;&gt;&lt;br style=&quot;font-size: 14px;&quot;&gt;&lt;/font&gt;&lt;/p&gt;" style="verticalAlign=middle;align=center;vsdxID=46;fillColor=none;gradientColor=none;shape=stencil(nZBLDoAgDERP0z3SIyjew0SURgSD+Lu9kMZoXLhwN9O+tukAlrNpJg1SzDH4QW/URgNYgZTkjA4UkwJUgGXng+6DX1zLfmoymdXo17xh5zmRJ6Q42BWCfc2oJfdAr+Yv+AP9Cb7OJ3H/2JG1HNGz/84klThPVCc=);strokeColor=none;labelBackgroundColor=none;rounded=0;html=1;whiteSpace=wrap;fontSize=14;" parent="flblZkYbyNQ9tiGkdh4v-29" vertex="1">
          <mxGeometry x="620" y="60" width="80" height="20" as="geometry" />
        </mxCell>
        <mxCell id="U5MXIK-24vMOK5HsXXuc-8" value="&lt;p style=&quot;margin: 0px ; text-indent: 0px ; direction: ltr ; font-size: 14px&quot;&gt;&lt;font style=&quot;font-size: 14px ; font-family: &amp;quot;times new roman&amp;quot; ; color: rgb(0 , 0 , 0) ; direction: ltr ; letter-spacing: 0px ; line-height: 140% ; opacity: 1&quot;&gt;&lt;i style=&quot;font-size: 14px&quot;&gt;ПОИТ гр. 251001&lt;/i&gt;&lt;/font&gt;&lt;font style=&quot;font-size: 14px ; font-family: &amp;quot;times new roman&amp;quot; ; color: rgb(0 , 0 , 0) ; direction: ltr ; letter-spacing: 0px ; line-height: 140% ; opacity: 1&quot;&gt;&lt;br style=&quot;font-size: 14px&quot;&gt;&lt;/font&gt;&lt;/p&gt;" style="verticalAlign=middle;align=center;vsdxID=49;fillColor=none;gradientColor=none;shape=stencil(nZBLDoAgDERP0z3SIyjew0SURgSD+Lu9kMZoXLhwN9O+tukAlrNpJg1SzDH4QW/URgNYgZTkjA4UkwJUgGXng+6DX1zLfmoymdXo17xh5zmRJ6Q42BWCfc2oJfdAr+Yv+AP9Cb7OJ3H/2JG1HNGz/84klThPVCc=);strokeColor=none;labelBackgroundColor=none;rounded=0;html=1;whiteSpace=wrap;fontSize=14;" parent="flblZkYbyNQ9tiGkdh4v-29" vertex="1">
          <mxGeometry x="500" y="160" width="200" height="60" as="geometry" />
        </mxCell>
        <mxCell id="flblZkYbyNQ9tiGkdh4v-12" value="&lt;p style=&quot;margin: 0px; text-indent: 0px; direction: ltr; font-size: 14px;&quot;&gt;&lt;font style=&quot;font-size: 14px; font-family: &amp;quot;times new roman&amp;quot;; color: rgb(0, 0, 0); direction: ltr; letter-spacing: 0px; line-height: 140%; opacity: 1;&quot;&gt;&lt;i style=&quot;font-size: 14px;&quot;&gt;Изм.&lt;/i&gt;&lt;/font&gt;&lt;font style=&quot;font-size: 14px; font-family: &amp;quot;times new roman&amp;quot;; color: rgb(0, 0, 0); direction: ltr; letter-spacing: 0px; line-height: 140%; opacity: 1;&quot;&gt;&lt;br style=&quot;font-size: 14px;&quot;&gt;&lt;/font&gt;&lt;/p&gt;" style="verticalAlign=middle;align=center;vsdxID=45;fillColor=none;gradientColor=none;shape=stencil(nZBLDoAgDERP0z3SIyjew0SURgSD+Lu9kMZoXLhwN9O+tukAlrNpJg1SzDH4QW/URgNYgZTkjA4UkwJUgGXng+6DX1zLfmoymdXo17xh5zmRJ6Q42BWCfc2oJfdAr+Yv+AP9Cb7OJ3H/2JG1HNGz/84klThPVCc=);strokeColor=none;labelBackgroundColor=none;rounded=0;html=1;whiteSpace=wrap;fontSize=14;" parent="flblZkYbyNQ9tiGkdh4v-29" vertex="1">
          <mxGeometry y="80" width="30" height="20" as="geometry" />
        </mxCell>
        <mxCell id="flblZkYbyNQ9tiGkdh4v-19" value="&lt;p style=&quot;margin: 0px ; text-indent: 0px ; direction: ltr&quot;&gt;&lt;br&gt;&lt;/p&gt;" style="verticalAlign=middle;align=center;vsdxID=41;fillColor=none;gradientColor=none;shape=stencil(nZBLDoAgDERP0z3SIyjew0SURgSD+Lu9kMZoXLhwN9O+tukAlrNpJg1SzDH4QW/URgNYgZTkjA4UkwJUgGXng+6DX1zLfmoymdXo17xh5zmRJ6Q42BWCfc2oJfdAr+Yv+AP9Cb7OJ3H/2JG1HNGz/84klThPVCc=);strokeColor=none;labelBackgroundColor=none;rounded=0;html=1;whiteSpace=wrap;fontSize=14;" parent="flblZkYbyNQ9tiGkdh4v-29" vertex="1">
          <mxGeometry x="70" y="100" width="90" height="20" as="geometry" />
        </mxCell>
        <mxCell id="_TU5-uRvaYoO45B7wxSe-66" value="" style="group" vertex="1" connectable="0" parent="1">
          <mxGeometry x="460.54" y="120" width="2439.46" height="2121" as="geometry" />
        </mxCell>
        <mxCell id="_TU5-uRvaYoO45B7wxSe-2" style="edgeStyle=orthogonalEdgeStyle;rounded=0;orthogonalLoop=1;jettySize=auto;html=1;exitX=0.5;exitY=1;exitDx=0;exitDy=0;exitPerimeter=0;entryX=0.5;entryY=0;entryDx=0;entryDy=0;strokeWidth=5;fontSize=35;" edge="1" parent="_TU5-uRvaYoO45B7wxSe-66" source="_TU5-uRvaYoO45B7wxSe-3" target="_TU5-uRvaYoO45B7wxSe-4">
          <mxGeometry relative="1" as="geometry" />
        </mxCell>
        <mxCell id="_TU5-uRvaYoO45B7wxSe-3" value="Начало" style="strokeWidth=5;html=1;shape=mxgraph.flowchart.terminator;whiteSpace=wrap;fontSize=35;" vertex="1" parent="_TU5-uRvaYoO45B7wxSe-66">
          <mxGeometry x="39.996912751677826" y="24.429393939393947" width="322.14765100671144" height="193.28818181818184" as="geometry" />
        </mxCell>
        <mxCell id="_TU5-uRvaYoO45B7wxSe-4" value="Создать новый поток для подключения" style="rounded=1;whiteSpace=wrap;html=1;absoluteArcSize=1;arcSize=0;strokeWidth=5;fontSize=35;" vertex="1" parent="_TU5-uRvaYoO45B7wxSe-66">
          <mxGeometry x="39.996912751677826" y="314.36166666666674" width="322.14765100671144" height="193.28818181818184" as="geometry" />
        </mxCell>
        <mxCell id="_TU5-uRvaYoO45B7wxSe-5" value="Выбросить исключения" style="rounded=1;whiteSpace=wrap;html=1;absoluteArcSize=1;arcSize=0;strokeWidth=5;fontSize=35;" vertex="1" parent="_TU5-uRvaYoO45B7wxSe-66">
          <mxGeometry x="716.5069798657719" y="636.5086363636364" width="322.14765100671144" height="193.28818181818184" as="geometry" />
        </mxCell>
        <mxCell id="_TU5-uRvaYoO45B7wxSe-6" style="edgeStyle=orthogonalEdgeStyle;rounded=0;orthogonalLoop=1;jettySize=auto;html=1;exitX=0.5;exitY=1;exitDx=0;exitDy=0;exitPerimeter=0;entryX=0.5;entryY=0;entryDx=0;entryDy=0;strokeWidth=5;fontSize=35;" edge="1" parent="_TU5-uRvaYoO45B7wxSe-66" source="_TU5-uRvaYoO45B7wxSe-8" target="_TU5-uRvaYoO45B7wxSe-9">
          <mxGeometry relative="1" as="geometry" />
        </mxCell>
        <mxCell id="_TU5-uRvaYoO45B7wxSe-7" style="edgeStyle=orthogonalEdgeStyle;rounded=0;orthogonalLoop=1;jettySize=auto;html=1;exitX=1;exitY=0.5;exitDx=0;exitDy=0;exitPerimeter=0;entryX=0;entryY=0.5;entryDx=0;entryDy=0;strokeWidth=5;fontSize=35;" edge="1" parent="_TU5-uRvaYoO45B7wxSe-66" source="_TU5-uRvaYoO45B7wxSe-8" target="_TU5-uRvaYoO45B7wxSe-5">
          <mxGeometry relative="1" as="geometry" />
        </mxCell>
        <mxCell id="_TU5-uRvaYoO45B7wxSe-8" value="&lt;font style=&quot;font-size: 35px;&quot;&gt;Текущий&amp;nbsp;&lt;/font&gt;&lt;div style=&quot;font-size: 35px;&quot;&gt;&lt;font style=&quot;font-size: 35px;&quot;&gt;статус&amp;nbsp;&lt;/font&gt;&lt;/div&gt;&lt;div style=&quot;font-size: 35px;&quot;&gt;&lt;font style=&quot;font-size: 35px;&quot;&gt;подключения&lt;/font&gt;&lt;/div&gt;" style="strokeWidth=5;html=1;shape=mxgraph.flowchart.decision;whiteSpace=wrap;fontSize=35;" vertex="1" parent="_TU5-uRvaYoO45B7wxSe-66">
          <mxGeometry x="39.996912751677826" y="604.2939393939394" width="322.14765100671144" height="257.7175757575758" as="geometry" />
        </mxCell>
        <mxCell id="_TU5-uRvaYoO45B7wxSe-9" value="Устанаивить&amp;nbsp;&lt;div style=&quot;font-size: 35px;&quot;&gt;&lt;span style=&quot;background-color: initial; font-size: 35px;&quot;&gt;статус&lt;/span&gt;&lt;div style=&quot;font-size: 35px;&quot;&gt;подключения CONNECTING&lt;/div&gt;&lt;/div&gt;" style="rounded=1;whiteSpace=wrap;html=1;absoluteArcSize=1;arcSize=0;strokeWidth=5;fontSize=35;" vertex="1" parent="_TU5-uRvaYoO45B7wxSe-66">
          <mxGeometry x="39.996912751677826" y="958.6556060606063" width="322.14765100671144" height="193.28818181818184" as="geometry" />
        </mxCell>
        <mxCell id="_TU5-uRvaYoO45B7wxSe-10" value="status !=&amp;nbsp;&lt;div style=&quot;font-size: 35px;&quot;&gt;DISCONNECTED&lt;/div&gt;" style="text;html=1;align=center;verticalAlign=middle;resizable=0;points=[];autosize=1;strokeColor=none;fillColor=none;strokeWidth=5;fontSize=35;" vertex="1" parent="_TU5-uRvaYoO45B7wxSe-66">
          <mxGeometry x="199.45892617449664" y="829.8009393939394" width="300" height="100" as="geometry" />
        </mxCell>
        <mxCell id="_TU5-uRvaYoO45B7wxSe-11" value="status ==&amp;nbsp;&lt;div style=&quot;font-size: 35px;&quot;&gt;DISCONNECTED&lt;/div&gt;" style="text;html=1;align=center;verticalAlign=middle;resizable=0;points=[];autosize=1;strokeColor=none;fillColor=none;strokeWidth=5;fontSize=35;" vertex="1" parent="_TU5-uRvaYoO45B7wxSe-66">
          <mxGeometry x="362.13979865771813" y="623.5339393939394" width="300" height="100" as="geometry" />
        </mxCell>
        <mxCell id="_TU5-uRvaYoO45B7wxSe-12" style="edgeStyle=orthogonalEdgeStyle;rounded=0;orthogonalLoop=1;jettySize=auto;html=1;exitX=0.5;exitY=1;exitDx=0;exitDy=0;entryX=0.5;entryY=0;entryDx=0;entryDy=0;entryPerimeter=0;strokeWidth=5;fontSize=35;" edge="1" parent="_TU5-uRvaYoO45B7wxSe-66" source="_TU5-uRvaYoO45B7wxSe-4" target="_TU5-uRvaYoO45B7wxSe-8">
          <mxGeometry relative="1" as="geometry" />
        </mxCell>
        <mxCell id="_TU5-uRvaYoO45B7wxSe-13" style="edgeStyle=orthogonalEdgeStyle;rounded=0;orthogonalLoop=1;jettySize=auto;html=1;exitX=0.5;exitY=1;exitDx=0;exitDy=0;exitPerimeter=0;entryX=0.5;entryY=0;entryDx=0;entryDy=0;strokeWidth=5;fontSize=35;" edge="1" parent="_TU5-uRvaYoO45B7wxSe-66" source="_TU5-uRvaYoO45B7wxSe-15" target="_TU5-uRvaYoO45B7wxSe-18">
          <mxGeometry relative="1" as="geometry" />
        </mxCell>
        <mxCell id="_TU5-uRvaYoO45B7wxSe-14" style="edgeStyle=orthogonalEdgeStyle;rounded=0;orthogonalLoop=1;jettySize=auto;html=1;exitX=1;exitY=0.5;exitDx=0;exitDy=0;exitPerimeter=0;entryX=0;entryY=0.5;entryDx=0;entryDy=0;strokeWidth=5;fontSize=35;" edge="1" parent="_TU5-uRvaYoO45B7wxSe-66" source="_TU5-uRvaYoO45B7wxSe-15" target="_TU5-uRvaYoO45B7wxSe-30">
          <mxGeometry relative="1" as="geometry" />
        </mxCell>
        <mxCell id="_TU5-uRvaYoO45B7wxSe-15" value="&lt;font style=&quot;font-size: 33px;&quot;&gt;Выбрана&amp;nbsp;&lt;/font&gt;&lt;div style=&quot;font-size: 33px;&quot;&gt;&lt;font style=&quot;font-size: 33px;&quot;&gt;опция&amp;nbsp;&lt;/font&gt;&lt;/div&gt;&lt;div style=&quot;font-size: 33px;&quot;&gt;&lt;font style=&quot;font-size: 33px;&quot;&gt;подключения к случайному&amp;nbsp;&lt;/font&gt;&lt;/div&gt;&lt;div style=&quot;font-size: 33px;&quot;&gt;&lt;font style=&quot;font-size: 33px;&quot;&gt;серверу&lt;/font&gt;&lt;br style=&quot;font-size: 33px;&quot;&gt;&lt;/div&gt;" style="strokeWidth=5;html=1;shape=mxgraph.flowchart.decision;whiteSpace=wrap;fontSize=33;" vertex="1" parent="_TU5-uRvaYoO45B7wxSe-66">
          <mxGeometry x="23.889530201342268" y="1248.5878787878787" width="354.36241610738256" height="289.9322727272728" as="geometry" />
        </mxCell>
        <mxCell id="_TU5-uRvaYoO45B7wxSe-16" style="edgeStyle=orthogonalEdgeStyle;rounded=0;orthogonalLoop=1;jettySize=auto;html=1;exitX=0.5;exitY=1;exitDx=0;exitDy=0;entryX=0.5;entryY=0;entryDx=0;entryDy=0;entryPerimeter=0;strokeWidth=5;fontSize=35;" edge="1" parent="_TU5-uRvaYoO45B7wxSe-66" source="_TU5-uRvaYoO45B7wxSe-9" target="_TU5-uRvaYoO45B7wxSe-15">
          <mxGeometry relative="1" as="geometry" />
        </mxCell>
        <mxCell id="_TU5-uRvaYoO45B7wxSe-17" style="edgeStyle=orthogonalEdgeStyle;rounded=0;orthogonalLoop=1;jettySize=auto;html=1;exitX=0.5;exitY=1;exitDx=0;exitDy=0;entryX=0.5;entryY=0;entryDx=0;entryDy=0;strokeWidth=5;fontSize=35;" edge="1" parent="_TU5-uRvaYoO45B7wxSe-66" source="_TU5-uRvaYoO45B7wxSe-18">
          <mxGeometry relative="1" as="geometry">
            <mxPoint x="201.07073825503352" y="1925.0965151515156" as="targetPoint" />
          </mxGeometry>
        </mxCell>
        <mxCell id="_TU5-uRvaYoO45B7wxSe-18" value="Получить список серверов" style="rounded=1;whiteSpace=wrap;html=1;absoluteArcSize=1;arcSize=0;strokeWidth=5;fontSize=35;" vertex="1" parent="_TU5-uRvaYoO45B7wxSe-66">
          <mxGeometry x="39.996912751677826" y="1635.1642424242427" width="322.14765100671144" height="193.28818181818184" as="geometry" />
        </mxCell>
        <mxCell id="_TU5-uRvaYoO45B7wxSe-19" style="edgeStyle=orthogonalEdgeStyle;rounded=0;orthogonalLoop=1;jettySize=auto;html=1;exitX=1;exitY=0.5;exitDx=0;exitDy=0;exitPerimeter=0;entryX=0;entryY=0.5;entryDx=0;entryDy=0;strokeWidth=5;fontSize=35;" edge="1" parent="_TU5-uRvaYoO45B7wxSe-66" source="_TU5-uRvaYoO45B7wxSe-21" target="_TU5-uRvaYoO45B7wxSe-22">
          <mxGeometry relative="1" as="geometry" />
        </mxCell>
        <mxCell id="_TU5-uRvaYoO45B7wxSe-20" style="edgeStyle=orthogonalEdgeStyle;rounded=0;orthogonalLoop=1;jettySize=auto;html=1;exitX=0.5;exitY=1;exitDx=0;exitDy=0;exitPerimeter=0;entryX=0.5;entryY=0;entryDx=0;entryDy=0;strokeWidth=5;fontSize=35;" edge="1" parent="_TU5-uRvaYoO45B7wxSe-66" source="_TU5-uRvaYoO45B7wxSe-21" target="_TU5-uRvaYoO45B7wxSe-28">
          <mxGeometry relative="1" as="geometry" />
        </mxCell>
        <mxCell id="_TU5-uRvaYoO45B7wxSe-21" value="Список&amp;nbsp;&lt;div style=&quot;font-size: 35px;&quot;&gt;серверов&amp;nbsp;&lt;/div&gt;&lt;div style=&quot;font-size: 35px;&quot;&gt;&lt;span style=&quot;background-color: initial; font-size: 35px;&quot;&gt;пустой&lt;/span&gt;&lt;/div&gt;" style="strokeWidth=5;html=1;shape=mxgraph.flowchart.decision;whiteSpace=wrap;fontSize=35;" vertex="1" parent="_TU5-uRvaYoO45B7wxSe-66">
          <mxGeometry x="1554.0908724832213" y="413.0352834848486" width="322.14765100671144" height="257.7175757575758" as="geometry" />
        </mxCell>
        <mxCell id="_TU5-uRvaYoO45B7wxSe-22" value="Устанаивить&amp;nbsp;&lt;div style=&quot;font-size: 35px;&quot;&gt;&lt;span style=&quot;background-color: initial; font-size: 35px;&quot;&gt;статус&lt;/span&gt;&lt;div style=&quot;font-size: 35px;&quot;&gt;подключения&lt;/div&gt;&lt;div style=&quot;font-size: 35px;&quot;&gt;DISCONNECTED&lt;/div&gt;&lt;/div&gt;" style="rounded=1;whiteSpace=wrap;html=1;absoluteArcSize=1;arcSize=0;strokeWidth=5;fontSize=35;" vertex="1" parent="_TU5-uRvaYoO45B7wxSe-66">
          <mxGeometry x="2037.3123489932887" y="445.2499804545455" width="322.14765100671144" height="193.28818181818184" as="geometry" />
        </mxCell>
        <mxCell id="_TU5-uRvaYoO45B7wxSe-23" value="да" style="text;html=1;align=center;verticalAlign=middle;resizable=0;points=[];autosize=1;strokeColor=none;fillColor=none;strokeWidth=5;fontSize=35;" vertex="1" parent="_TU5-uRvaYoO45B7wxSe-66">
          <mxGeometry x="209.45906040268454" y="1549.995742424243" width="60" height="60" as="geometry" />
        </mxCell>
        <mxCell id="_TU5-uRvaYoO45B7wxSe-24" value="да" style="text;html=1;align=center;verticalAlign=middle;resizable=0;points=[];autosize=1;strokeColor=none;fillColor=none;strokeWidth=5;fontSize=35;" vertex="1" parent="_TU5-uRvaYoO45B7wxSe-66">
          <mxGeometry x="1870.6685234899328" y="469.99879863636374" width="60" height="60" as="geometry" />
        </mxCell>
        <mxCell id="_TU5-uRvaYoO45B7wxSe-25" style="edgeStyle=orthogonalEdgeStyle;rounded=0;orthogonalLoop=1;jettySize=auto;html=1;exitX=0.5;exitY=1;exitDx=0;exitDy=0;entryX=0.5;entryY=0;entryDx=0;entryDy=0;strokeWidth=5;fontSize=35;" edge="1" parent="_TU5-uRvaYoO45B7wxSe-66" source="_TU5-uRvaYoO45B7wxSe-26" target="_TU5-uRvaYoO45B7wxSe-35">
          <mxGeometry relative="1" as="geometry" />
        </mxCell>
        <mxCell id="_TU5-uRvaYoO45B7wxSe-26" value="Выбрать случайный сервер из полученного списка серверов" style="rounded=1;whiteSpace=wrap;html=1;absoluteArcSize=1;arcSize=0;strokeWidth=5;fontSize=35;" vertex="1" parent="_TU5-uRvaYoO45B7wxSe-66">
          <mxGeometry x="1554.0908724832213" y="1057.3292228787882" width="322.14765100671144" height="225.50287878787884" as="geometry" />
        </mxCell>
        <mxCell id="_TU5-uRvaYoO45B7wxSe-27" style="edgeStyle=orthogonalEdgeStyle;rounded=0;orthogonalLoop=1;jettySize=auto;html=1;exitX=0.5;exitY=1;exitDx=0;exitDy=0;entryX=0.5;entryY=0;entryDx=0;entryDy=0;strokeWidth=5;fontSize=35;" edge="1" parent="_TU5-uRvaYoO45B7wxSe-66" source="_TU5-uRvaYoO45B7wxSe-28" target="_TU5-uRvaYoO45B7wxSe-26">
          <mxGeometry relative="1" as="geometry" />
        </mxCell>
        <mxCell id="_TU5-uRvaYoO45B7wxSe-28" value="Устанаивить&amp;nbsp;&lt;div style=&quot;font-size: 35px;&quot;&gt;&lt;span style=&quot;background-color: initial; font-size: 35px;&quot;&gt;статус&lt;/span&gt;&lt;div style=&quot;font-size: 35px;&quot;&gt;подключения&lt;/div&gt;&lt;div style=&quot;font-size: 35px;&quot;&gt;CONNECTING&lt;/div&gt;&lt;/div&gt;" style="rounded=1;whiteSpace=wrap;html=1;absoluteArcSize=1;arcSize=0;strokeWidth=5;fontSize=35;" vertex="1" parent="_TU5-uRvaYoO45B7wxSe-66">
          <mxGeometry x="1554.0908724832213" y="767.3969501515153" width="322.14765100671144" height="193.28818181818184" as="geometry" />
        </mxCell>
        <mxCell id="_TU5-uRvaYoO45B7wxSe-29" value="нет" style="text;html=1;align=center;verticalAlign=middle;resizable=0;points=[];autosize=1;strokeColor=none;fillColor=none;strokeWidth=5;fontSize=35;" vertex="1" parent="_TU5-uRvaYoO45B7wxSe-66">
          <mxGeometry x="1729.4556375838924" y="679.9981622727274" width="80" height="60" as="geometry" />
        </mxCell>
        <mxCell id="_TU5-uRvaYoO45B7wxSe-30" value="Создать URL из тестового компонента на экране" style="rounded=1;whiteSpace=wrap;html=1;absoluteArcSize=1;arcSize=0;strokeWidth=5;fontSize=35;" vertex="1" parent="_TU5-uRvaYoO45B7wxSe-66">
          <mxGeometry x="719.728456375839" y="1300.1313939393942" width="322.14765100671144" height="189.26134469696976" as="geometry" />
        </mxCell>
        <mxCell id="_TU5-uRvaYoO45B7wxSe-31" value="нет" style="text;html=1;align=center;verticalAlign=middle;resizable=0;points=[];autosize=1;strokeColor=none;fillColor=none;strokeWidth=5;fontSize=35;" vertex="1" parent="_TU5-uRvaYoO45B7wxSe-66">
          <mxGeometry x="379.80899328859056" y="1328.0172727272727" width="80" height="60" as="geometry" />
        </mxCell>
        <mxCell id="_TU5-uRvaYoO45B7wxSe-32" value="А" style="strokeWidth=5;html=1;shape=mxgraph.flowchart.start_2;whiteSpace=wrap;fontSize=35;" vertex="1" parent="_TU5-uRvaYoO45B7wxSe-66">
          <mxGeometry x="120.53382550335567" y="1925.0965151515156" width="161.07382550335572" height="161.07348484848484" as="geometry" />
        </mxCell>
        <mxCell id="_TU5-uRvaYoO45B7wxSe-33" value="А" style="strokeWidth=5;html=1;shape=mxgraph.flowchart.start_2;whiteSpace=wrap;fontSize=35;" vertex="1" parent="_TU5-uRvaYoO45B7wxSe-66">
          <mxGeometry x="1634.6277852348994" y="155.31770772727276" width="161.07382550335572" height="161.07348484848484" as="geometry" />
        </mxCell>
        <mxCell id="_TU5-uRvaYoO45B7wxSe-34" style="edgeStyle=orthogonalEdgeStyle;rounded=0;orthogonalLoop=1;jettySize=auto;html=1;exitX=0.5;exitY=1;exitDx=0;exitDy=0;exitPerimeter=0;entryX=0.5;entryY=0;entryDx=0;entryDy=0;entryPerimeter=0;strokeWidth=5;fontSize=35;" edge="1" parent="_TU5-uRvaYoO45B7wxSe-66" source="_TU5-uRvaYoO45B7wxSe-33" target="_TU5-uRvaYoO45B7wxSe-21">
          <mxGeometry relative="1" as="geometry" />
        </mxCell>
        <mxCell id="_TU5-uRvaYoO45B7wxSe-35" value="Установить соединение с выбранным сервером" style="rounded=1;whiteSpace=wrap;html=1;absoluteArcSize=1;arcSize=0;strokeWidth=5;fontSize=35;" vertex="1" parent="_TU5-uRvaYoO45B7wxSe-66">
          <mxGeometry x="1554.0908724832213" y="1379.4761925757575" width="322.14765100671144" height="189.26134469696976" as="geometry" />
        </mxCell>
        <mxCell id="_TU5-uRvaYoO45B7wxSe-36" value="Конец" style="strokeWidth=5;html=1;shape=mxgraph.flowchart.terminator;whiteSpace=wrap;fontSize=35;" vertex="1" parent="_TU5-uRvaYoO45B7wxSe-66">
          <mxGeometry x="1554.0908724832213" y="1733.8378592424247" width="322.14765100671144" height="193.28818181818184" as="geometry" />
        </mxCell>
        <mxCell id="_TU5-uRvaYoO45B7wxSe-37" style="edgeStyle=orthogonalEdgeStyle;rounded=0;orthogonalLoop=1;jettySize=auto;html=1;exitX=0.5;exitY=1;exitDx=0;exitDy=0;entryX=0.5;entryY=0;entryDx=0;entryDy=0;entryPerimeter=0;strokeWidth=5;fontSize=35;" edge="1" parent="_TU5-uRvaYoO45B7wxSe-66" source="_TU5-uRvaYoO45B7wxSe-35" target="_TU5-uRvaYoO45B7wxSe-36">
          <mxGeometry relative="1" as="geometry" />
        </mxCell>
        <mxCell id="_TU5-uRvaYoO45B7wxSe-38" style="edgeStyle=orthogonalEdgeStyle;rounded=0;orthogonalLoop=1;jettySize=auto;html=1;exitX=0;exitY=0.5;exitDx=0;exitDy=0;exitPerimeter=0;strokeWidth=5;fontSize=35;" edge="1" parent="_TU5-uRvaYoO45B7wxSe-66" source="_TU5-uRvaYoO45B7wxSe-39">
          <mxGeometry relative="1" as="geometry">
            <mxPoint x="1715.1646979865773" y="1637.7622629857403" as="targetPoint" />
          </mxGeometry>
        </mxCell>
        <mxCell id="_TU5-uRvaYoO45B7wxSe-39" value="В" style="strokeWidth=5;html=1;shape=mxgraph.flowchart.start_2;whiteSpace=wrap;fontSize=35;" vertex="1" parent="_TU5-uRvaYoO45B7wxSe-66">
          <mxGeometry x="1956.7754362416108" y="1556.6570259090913" width="161.07382550335572" height="165.10032196969698" as="geometry" />
        </mxCell>
        <mxCell id="_TU5-uRvaYoO45B7wxSe-40" value="В" style="strokeWidth=5;html=1;shape=mxgraph.flowchart.start_2;whiteSpace=wrap;fontSize=35;" vertex="1" parent="_TU5-uRvaYoO45B7wxSe-66">
          <mxGeometry x="797.0438926174497" y="958.6556060606063" width="161.07382550335572" height="165.10032196969698" as="geometry" />
        </mxCell>
        <mxCell id="_TU5-uRvaYoO45B7wxSe-41" style="edgeStyle=orthogonalEdgeStyle;rounded=0;orthogonalLoop=1;jettySize=auto;html=1;exitX=0.5;exitY=1;exitDx=0;exitDy=0;entryX=0.5;entryY=0;entryDx=0;entryDy=0;entryPerimeter=0;strokeWidth=5;fontSize=35;" edge="1" parent="_TU5-uRvaYoO45B7wxSe-66" source="_TU5-uRvaYoO45B7wxSe-5" target="_TU5-uRvaYoO45B7wxSe-40">
          <mxGeometry relative="1" as="geometry" />
        </mxCell>
        <mxCell id="_TU5-uRvaYoO45B7wxSe-42" value="В" style="strokeWidth=5;html=1;shape=mxgraph.flowchart.start_2;whiteSpace=wrap;fontSize=35;" vertex="1" parent="_TU5-uRvaYoO45B7wxSe-66">
          <mxGeometry x="2117.849261744967" y="735.1822531818182" width="161.07382550335572" height="165.10032196969698" as="geometry" />
        </mxCell>
        <mxCell id="_TU5-uRvaYoO45B7wxSe-43" style="edgeStyle=orthogonalEdgeStyle;rounded=0;orthogonalLoop=1;jettySize=auto;html=1;exitX=0.5;exitY=1;exitDx=0;exitDy=0;entryX=0.5;entryY=0;entryDx=0;entryDy=0;entryPerimeter=0;strokeWidth=5;fontSize=35;" edge="1" parent="_TU5-uRvaYoO45B7wxSe-66" source="_TU5-uRvaYoO45B7wxSe-22" target="_TU5-uRvaYoO45B7wxSe-42">
          <mxGeometry relative="1" as="geometry" />
        </mxCell>
        <mxCell id="_TU5-uRvaYoO45B7wxSe-44" style="edgeStyle=orthogonalEdgeStyle;rounded=0;orthogonalLoop=1;jettySize=auto;html=1;exitX=1;exitY=0.5;exitDx=0;exitDy=0;exitPerimeter=0;entryX=0;entryY=0.5;entryDx=0;entryDy=0;strokeWidth=5;fontSize=35;" edge="1" parent="_TU5-uRvaYoO45B7wxSe-66" target="_TU5-uRvaYoO45B7wxSe-35">
          <mxGeometry relative="1" as="geometry">
            <mxPoint x="1393.0170469798659" y="1474.1068649242425" as="sourcePoint" />
          </mxGeometry>
        </mxCell>
        <mxCell id="_TU5-uRvaYoO45B7wxSe-45" value="С" style="strokeWidth=5;html=1;shape=mxgraph.flowchart.start_2;whiteSpace=wrap;fontSize=35;" vertex="1" parent="_TU5-uRvaYoO45B7wxSe-66">
          <mxGeometry x="1231.94322147651" y="1391.5567039393943" width="161.07382550335572" height="165.10032196969698" as="geometry" />
        </mxCell>
        <mxCell id="_TU5-uRvaYoO45B7wxSe-46" value="С" style="strokeWidth=5;html=1;shape=mxgraph.flowchart.start_2;whiteSpace=wrap;fontSize=35;" vertex="1" parent="_TU5-uRvaYoO45B7wxSe-66">
          <mxGeometry x="800.2653691275168" y="1592.0609778787884" width="161.07382550335572" height="165.10032196969698" as="geometry" />
        </mxCell>
        <mxCell id="_TU5-uRvaYoO45B7wxSe-47" style="edgeStyle=orthogonalEdgeStyle;rounded=0;orthogonalLoop=1;jettySize=auto;html=1;exitX=0.5;exitY=1;exitDx=0;exitDy=0;entryX=0.5;entryY=0;entryDx=0;entryDy=0;entryPerimeter=0;strokeWidth=5;fontSize=35;" edge="1" parent="_TU5-uRvaYoO45B7wxSe-66" source="_TU5-uRvaYoO45B7wxSe-30" target="_TU5-uRvaYoO45B7wxSe-46">
          <mxGeometry relative="1" as="geometry" />
        </mxCell>
        <mxCell id="_TU5-uRvaYoO45B7wxSe-48" value="1" style="text;html=1;align=center;verticalAlign=middle;resizable=0;points=[];autosize=1;strokeColor=none;fillColor=none;fontSize=35;" vertex="1" parent="_TU5-uRvaYoO45B7wxSe-66">
          <mxGeometry width="40" height="60" as="geometry" />
        </mxCell>
        <mxCell id="_TU5-uRvaYoO45B7wxSe-49" value="2" style="text;html=1;align=center;verticalAlign=middle;resizable=0;points=[];autosize=1;strokeColor=none;fillColor=none;fontSize=35;" vertex="1" parent="_TU5-uRvaYoO45B7wxSe-66">
          <mxGeometry y="254.35710166666678" width="40" height="60" as="geometry" />
        </mxCell>
        <mxCell id="_TU5-uRvaYoO45B7wxSe-50" value="3" style="text;html=1;align=center;verticalAlign=middle;resizable=0;points=[];autosize=1;strokeColor=none;fillColor=none;fontSize=35;" vertex="1" parent="_TU5-uRvaYoO45B7wxSe-66">
          <mxGeometry y="660.0012878787879" width="40" height="60" as="geometry" />
        </mxCell>
        <mxCell id="_TU5-uRvaYoO45B7wxSe-51" value="4" style="text;html=1;align=center;verticalAlign=middle;resizable=0;points=[];autosize=1;strokeColor=none;fillColor=none;fontSize=35;" vertex="1" parent="_TU5-uRvaYoO45B7wxSe-66">
          <mxGeometry y="898.6510410606061" width="40" height="60" as="geometry" />
        </mxCell>
        <mxCell id="_TU5-uRvaYoO45B7wxSe-52" value="5" style="text;html=1;align=center;verticalAlign=middle;resizable=0;points=[];autosize=1;strokeColor=none;fillColor=none;fontSize=35;" vertex="1" parent="_TU5-uRvaYoO45B7wxSe-66">
          <mxGeometry y="1310.0021016666672" width="40" height="60" as="geometry" />
        </mxCell>
        <mxCell id="_TU5-uRvaYoO45B7wxSe-53" value="6" style="text;html=1;align=center;verticalAlign=middle;resizable=0;points=[];autosize=1;strokeColor=none;fillColor=none;fontSize=35;" vertex="1" parent="_TU5-uRvaYoO45B7wxSe-66">
          <mxGeometry y="1575.1670259090913" width="40" height="60" as="geometry" />
        </mxCell>
        <mxCell id="_TU5-uRvaYoO45B7wxSe-54" value="7" style="text;html=1;align=center;verticalAlign=middle;resizable=0;points=[];autosize=1;strokeColor=none;fillColor=none;strokeWidth=5;fontSize=35;" vertex="1" parent="_TU5-uRvaYoO45B7wxSe-66">
          <mxGeometry x="676.5074496644295" y="576.5040713636365" width="40" height="60" as="geometry" />
        </mxCell>
        <mxCell id="_TU5-uRvaYoO45B7wxSe-55" value="8" style="text;html=1;align=center;verticalAlign=middle;resizable=0;points=[];autosize=1;strokeColor=none;fillColor=none;strokeWidth=5;fontSize=35;" vertex="1" parent="_TU5-uRvaYoO45B7wxSe-66">
          <mxGeometry x="676.5074496644295" y="1240.133181818182" width="40" height="60" as="geometry" />
        </mxCell>
        <mxCell id="_TU5-uRvaYoO45B7wxSe-56" value="9" style="text;html=1;align=center;verticalAlign=middle;resizable=0;points=[];autosize=1;strokeColor=none;fillColor=none;strokeWidth=5;fontSize=35;" vertex="1" parent="_TU5-uRvaYoO45B7wxSe-66">
          <mxGeometry x="1514.0913422818794" y="469.9999804545455" width="40" height="60" as="geometry" />
        </mxCell>
        <mxCell id="_TU5-uRvaYoO45B7wxSe-57" value="10" style="text;html=1;align=center;verticalAlign=middle;resizable=0;points=[];autosize=1;strokeColor=none;fillColor=none;strokeWidth=5;fontSize=35;" vertex="1" parent="_TU5-uRvaYoO45B7wxSe-66">
          <mxGeometry x="1504.0865771812084" y="703.1506818181821" width="60" height="60" as="geometry" />
        </mxCell>
        <mxCell id="_TU5-uRvaYoO45B7wxSe-58" value="11" style="text;html=1;align=center;verticalAlign=middle;resizable=0;points=[];autosize=1;strokeColor=none;fillColor=none;strokeWidth=5;fontSize=35;" vertex="1" parent="_TU5-uRvaYoO45B7wxSe-66">
          <mxGeometry x="1504.0865771812084" y="1009.9998289393941" width="60" height="60" as="geometry" />
        </mxCell>
        <mxCell id="_TU5-uRvaYoO45B7wxSe-59" value="12" style="text;html=1;align=center;verticalAlign=middle;resizable=0;points=[];autosize=1;strokeColor=none;fillColor=none;strokeWidth=5;fontSize=35;" vertex="1" parent="_TU5-uRvaYoO45B7wxSe-66">
          <mxGeometry x="1504.0865771812084" y="1319.4772727272727" width="60" height="60" as="geometry" />
        </mxCell>
        <mxCell id="_TU5-uRvaYoO45B7wxSe-60" value="13" style="text;html=1;align=center;verticalAlign=middle;resizable=0;points=[];autosize=1;strokeColor=none;fillColor=none;strokeWidth=5;fontSize=35;" vertex="1" parent="_TU5-uRvaYoO45B7wxSe-66">
          <mxGeometry x="1504.093959731544" y="1721.7562878787883" width="60" height="60" as="geometry" />
        </mxCell>
        <mxCell id="_TU5-uRvaYoO45B7wxSe-61" value="14" style="text;html=1;align=center;verticalAlign=middle;resizable=0;points=[];autosize=1;strokeColor=none;fillColor=none;strokeWidth=5;fontSize=35;" vertex="1" parent="_TU5-uRvaYoO45B7wxSe-66">
          <mxGeometry x="1977.3080536912753" y="390.0047077272727" width="60" height="60" as="geometry" />
        </mxCell>
        <mxCell id="_TU5-uRvaYoO45B7wxSe-68" value="&lt;font style=&quot;font-size: 14px;&quot; face=&quot;Times New Roman&quot;&gt;&lt;i&gt;Бруцкая А.С.&lt;/i&gt;&lt;/font&gt;" style="text;whiteSpace=wrap;html=1;" vertex="1" parent="_TU5-uRvaYoO45B7wxSe-66">
          <mxGeometry x="2174.46" y="2056" width="100" height="40" as="geometry" />
        </mxCell>
        <mxCell id="flblZkYbyNQ9tiGkdh4v-20" value="&lt;p style=&quot;margin-left: 0 ; margin-right: 0 ; margin-top: 0px ; margin-bottom: 0px ; text-indent: 0 ; direction: ltr&quot;&gt;&lt;font size=&quot;1&quot; style=&quot;font-family: &amp;quot;times new roman&amp;quot;; color: rgb(0, 0, 0); direction: ltr; letter-spacing: 0px; line-height: 140%; opacity: 1;&quot;&gt;&lt;i style=&quot;font-size: 11px;&quot;&gt;Красковский П.Н.&lt;/i&gt;&lt;/font&gt;&lt;/p&gt;" style="verticalAlign=middle;align=center;vsdxID=41;fillColor=none;gradientColor=none;shape=stencil(nZBLDoAgDERP0z3SIyjew0SURgSD+Lu9kMZoXLhwN9O+tukAlrNpJg1SzDH4QW/URgNYgZTkjA4UkwJUgGXng+6DX1zLfmoymdXo17xh5zmRJ6Q42BWCfc2oJfdAr+Yv+AP9Cb7OJ3H/2JG1HNGz/84klThPVCc=);strokeColor=none;labelBackgroundColor=none;rounded=0;html=1;whiteSpace=wrap;" parent="_TU5-uRvaYoO45B7wxSe-66" vertex="1">
          <mxGeometry x="2165.46" y="2081" width="100" height="20" as="geometry" />
        </mxCell>
        <mxCell id="_TU5-uRvaYoO45B7wxSe-70" value="&lt;i style=&quot;forced-color-adjust: none; color: rgb(0, 0, 0); font-family: &amp;quot;times new roman&amp;quot;; font-variant-ligatures: normal; font-variant-caps: normal; font-weight: 400; letter-spacing: normal; orphans: 2; text-align: center; text-indent: 0px; text-transform: none; widows: 2; word-spacing: 0px; -webkit-text-stroke-width: 0px; white-space: normal; background-color: rgb(251, 251, 251); text-decoration-thickness: initial; text-decoration-style: initial; text-decoration-color: initial;&quot;&gt;&lt;font style=&quot;font-size: 8px;&quot;&gt;28.05.2024&lt;/font&gt;&lt;/i&gt;" style="text;whiteSpace=wrap;html=1;" vertex="1" parent="_TU5-uRvaYoO45B7wxSe-66">
          <mxGeometry x="2319.46" y="2056" width="120" height="40" as="geometry" />
        </mxCell>
        <mxCell id="_TU5-uRvaYoO45B7wxSe-69" value="&lt;i style=&quot;forced-color-adjust: none; color: rgb(0, 0, 0); font-family: &amp;quot;times new roman&amp;quot;; font-variant-ligatures: normal; font-variant-caps: normal; font-weight: 400; letter-spacing: normal; orphans: 2; text-align: center; text-indent: 0px; text-transform: none; widows: 2; word-spacing: 0px; -webkit-text-stroke-width: 0px; white-space: normal; background-color: rgb(251, 251, 251); text-decoration-thickness: initial; text-decoration-style: initial; text-decoration-color: initial;&quot;&gt;&lt;font style=&quot;font-size: 8px;&quot;&gt;28.05.2024&lt;/font&gt;&lt;/i&gt;" style="text;whiteSpace=wrap;html=1;" vertex="1" parent="_TU5-uRvaYoO45B7wxSe-66">
          <mxGeometry x="2318.46" y="2076" width="120" height="40" as="geometry" />
        </mxCell>
        <mxCell id="U5MXIK-24vMOK5HsXXuc-1" parent="0" />
        <mxCell id="U5MXIK-24vMOK5HsXXuc-10" style="vsdxID=56;edgeStyle=none;startArrow=none;endArrow=none;startSize=5;endSize=5;strokeColor=#000000;spacingTop=0;spacingBottom=0;spacingLeft=0;spacingRight=0;verticalAlign=middle;html=1;labelBackgroundColor=#ffffff;rounded=0;" parent="U5MXIK-24vMOK5HsXXuc-1" edge="1">
          <mxGeometry relative="1" as="geometry">
            <mxPoint as="offset" />
            <Array as="points" />
            <mxPoint x="120" y="40" as="sourcePoint" />
            <mxPoint x="3260" y="40" as="targetPoint" />
          </mxGeometry>
        </mxCell>
        <mxCell id="U5MXIK-24vMOK5HsXXuc-11" style="vsdxID=55;edgeStyle=none;startArrow=none;endArrow=none;startSize=5;endSize=5;strokeColor=#000000;spacingTop=0;spacingBottom=0;spacingLeft=0;spacingRight=0;verticalAlign=middle;html=1;labelBackgroundColor=#ffffff;rounded=0;" parent="U5MXIK-24vMOK5HsXXuc-1" edge="1">
          <mxGeometry relative="1" as="geometry">
            <mxPoint x="8" as="offset" />
            <Array as="points" />
            <mxPoint x="120" y="2300" as="sourcePoint" />
            <mxPoint x="120" y="40" as="targetPoint" />
          </mxGeometry>
        </mxCell>
        <mxCell id="U5MXIK-24vMOK5HsXXuc-12" style="vsdxID=54;edgeStyle=none;startArrow=none;endArrow=none;startSize=5;endSize=5;strokeColor=#000000;spacingTop=0;spacingBottom=0;spacingLeft=0;spacingRight=0;verticalAlign=middle;html=1;labelBackgroundColor=#ffffff;rounded=0;" parent="U5MXIK-24vMOK5HsXXuc-1" edge="1">
          <mxGeometry relative="1" as="geometry">
            <mxPoint as="offset" />
            <Array as="points" />
            <mxPoint x="120" y="2300" as="sourcePoint" />
            <mxPoint x="3260" y="2300" as="targetPoint" />
          </mxGeometry>
        </mxCell>
        <mxCell id="U5MXIK-24vMOK5HsXXuc-13" style="vsdxID=52;edgeStyle=none;startArrow=none;endArrow=none;startSize=5;endSize=5;strokeColor=#000000;spacingTop=0;spacingBottom=0;spacingLeft=0;spacingRight=0;verticalAlign=middle;html=1;labelBackgroundColor=#ffffff;rounded=0;" parent="U5MXIK-24vMOK5HsXXuc-1" edge="1">
          <mxGeometry relative="1" as="geometry">
            <mxPoint x="8" as="offset" />
            <Array as="points" />
            <mxPoint x="3260" y="2300" as="sourcePoint" />
            <mxPoint x="3260" y="40" as="targetPoint" />
          </mxGeometry>
        </mxCell>
        <mxCell id="U5MXIK-24vMOK5HsXXuc-90" value="Flowchart" parent="0" />
        <mxCell id="U5MXIK-24vMOK5HsXXuc-91" value="Блок-схема" parent="0" />
        <mxCell id="U5MXIK-24vMOK5HsXXuc-118" value="Connector" parent="0" />
        <mxCell id="flblZkYbyNQ9tiGkdh4v-10" value="&lt;p style=&quot;margin-left: 0 ; margin-right: 0 ; margin-top: 0px ; margin-bottom: 0px ; text-indent: 0 ; direction: ltr&quot;&gt;&lt;font style=&quot;font-size: 14px ; font-family: &amp;#34;times new roman&amp;#34; ; color: #000000 ; direction: ltr ; letter-spacing: 0px ; line-height: 140% ; opacity: 1&quot;&gt;&lt;i&gt;Проверил&lt;/i&gt;&lt;/font&gt;&lt;font style=&quot;font-size: 14px ; font-family: &amp;#34;times new roman&amp;#34; ; color: #000000 ; direction: ltr ; letter-spacing: 0px ; line-height: 140% ; opacity: 1&quot;&gt;&lt;br&gt;&lt;/font&gt;&lt;/p&gt;" style="verticalAlign=middle;align=center;vsdxID=41;fillColor=none;gradientColor=none;shape=stencil(nZBLDoAgDERP0z3SIyjew0SURgSD+Lu9kMZoXLhwN9O+tukAlrNpJg1SzDH4QW/URgNYgZTkjA4UkwJUgGXng+6DX1zLfmoymdXo17xh5zmRJ6Q42BWCfc2oJfdAr+Yv+AP9Cb7OJ3H/2JG1HNGz/84klThPVCc=);strokeColor=none;labelBackgroundColor=none;rounded=0;html=1;whiteSpace=wrap;" parent="U5MXIK-24vMOK5HsXXuc-118" vertex="1">
          <mxGeometry x="2560" y="2200" width="70" height="20" as="geometry" />
        </mxCell>
        <mxCell id="flblZkYbyNQ9tiGkdh4v-13" value="&lt;p style=&quot;margin-left: 0 ; margin-right: 0 ; margin-top: 0px ; margin-bottom: 0px ; text-indent: 0 ; direction: ltr&quot;&gt;&lt;font style=&quot;font-size: 12px ; font-family: &amp;#34;times new roman&amp;#34; ; color: #000000 ; direction: ltr ; letter-spacing: 0px ; line-height: 140% ; opacity: 1&quot;&gt;&lt;i&gt;Лист&lt;/i&gt;&lt;/font&gt;&lt;font style=&quot;font-size: 12px ; font-family: &amp;#34;times new roman&amp;#34; ; color: #000000 ; direction: ltr ; letter-spacing: 0px ; line-height: 140% ; opacity: 1&quot;&gt;&lt;br&gt;&lt;/font&gt;&lt;/p&gt;" style="verticalAlign=middle;align=center;vsdxID=45;fillColor=none;gradientColor=none;shape=stencil(nZBLDoAgDERP0z3SIyjew0SURgSD+Lu9kMZoXLhwN9O+tukAlrNpJg1SzDH4QW/URgNYgZTkjA4UkwJUgGXng+6DX1zLfmoymdXo17xh5zmRJ6Q42BWCfc2oJfdAr+Yv+AP9Cb7OJ3H/2JG1HNGz/84klThPVCc=);strokeColor=none;labelBackgroundColor=none;rounded=0;html=1;whiteSpace=wrap;" parent="U5MXIK-24vMOK5HsXXuc-118" vertex="1">
          <mxGeometry x="2590" y="2160" width="40" height="20" as="geometry" />
        </mxCell>
        <mxCell id="flblZkYbyNQ9tiGkdh4v-15" value="&lt;p style=&quot;margin-left: 0 ; margin-right: 0 ; margin-top: 0px ; margin-bottom: 0px ; text-indent: 0 ; direction: ltr&quot;&gt;&lt;font style=&quot;font-size: 12px ; font-family: &amp;#34;times new roman&amp;#34; ; color: #000000 ; direction: ltr ; letter-spacing: 0px ; line-height: 140% ; opacity: 1&quot;&gt;&lt;i&gt;№ докум.&lt;/i&gt;&lt;/font&gt;&lt;font style=&quot;font-size: 12px ; font-family: &amp;#34;times new roman&amp;#34; ; color: #000000 ; direction: ltr ; letter-spacing: 0px ; line-height: 140% ; opacity: 1&quot;&gt;&lt;br&gt;&lt;/font&gt;&lt;/p&gt;" style="verticalAlign=middle;align=center;vsdxID=45;fillColor=none;gradientColor=none;shape=stencil(nZBLDoAgDERP0z3SIyjew0SURgSD+Lu9kMZoXLhwN9O+tukAlrNpJg1SzDH4QW/URgNYgZTkjA4UkwJUgGXng+6DX1zLfmoymdXo17xh5zmRJ6Q42BWCfc2oJfdAr+Yv+AP9Cb7OJ3H/2JG1HNGz/84klThPVCc=);strokeColor=none;labelBackgroundColor=none;rounded=0;html=1;whiteSpace=wrap;" parent="U5MXIK-24vMOK5HsXXuc-118" vertex="1">
          <mxGeometry x="2630" y="2160" width="90" height="20" as="geometry" />
        </mxCell>
        <mxCell id="flblZkYbyNQ9tiGkdh4v-18" value="&lt;p style=&quot;margin-left: 0 ; margin-right: 0 ; margin-top: 0px ; margin-bottom: 0px ; text-indent: 0 ; direction: ltr&quot;&gt;&lt;font style=&quot;font-size: 12px ; font-family: &amp;#34;times new roman&amp;#34; ; color: #000000 ; direction: ltr ; letter-spacing: 0px ; line-height: 140% ; opacity: 1&quot;&gt;&lt;i&gt;Дата&lt;/i&gt;&lt;/font&gt;&lt;font style=&quot;font-size: 12px ; font-family: &amp;#34;times new roman&amp;#34; ; color: #000000 ; direction: ltr ; letter-spacing: 0px ; line-height: 140% ; opacity: 1&quot;&gt;&lt;br&gt;&lt;/font&gt;&lt;/p&gt;" style="verticalAlign=middle;align=center;vsdxID=45;fillColor=none;gradientColor=none;shape=stencil(nZBLDoAgDERP0z3SIyjew0SURgSD+Lu9kMZoXLhwN9O+tukAlrNpJg1SzDH4QW/URgNYgZTkjA4UkwJUgGXng+6DX1zLfmoymdXo17xh5zmRJ6Q42BWCfc2oJfdAr+Yv+AP9Cb7OJ3H/2JG1HNGz/84klThPVCc=);strokeColor=none;labelBackgroundColor=none;rounded=0;html=1;whiteSpace=wrap;" parent="U5MXIK-24vMOK5HsXXuc-118" vertex="1">
          <mxGeometry x="2780" y="2160" width="40" height="20" as="geometry" />
        </mxCell>
        <mxCell id="U5MXIK-24vMOK5HsXXuc-119" value="Выноска" parent="0" />
      </root>
    </mxGraphModel>
  </diagram>
</mxfile>
